<svg height="512pt" viewBox="-3 0 511 512" width="512pt" xmlns="http://www.w3.org/2000/svg"><path d="m492.363281 384h-479.734375c-4.488281 0-8.128906-3.585938-8.128906-8v-16c0-4.414062 3.640625-8 8.128906-8h479.734375c4.488281 0 8.128907 3.585938 8.128907 8v16c.007812 4.414062-3.640626 8-8.128907 8zm0 0" fill="#ffd740"/><path d="m492.363281 388h-479.734375c-6.6875 0-12.128906-5.382812-12.128906-12v-16c0-6.617188 5.441406-12 12.136719-12h479.734375c6.6875 0 12.136718 5.382812 12.136718 12v16c-.007812 6.617188-5.457031 12-12.144531 12zm-479.734375-32c-2.28125 0-4.128906 1.792969-4.128906 4v16c0 2.207031 1.855469 4 4.136719 4h479.734375c2.28125 0 4.136718-1.792969 4.136718-4v-16c0-2.207031-1.855468-4-4.136718-4zm0 0" fill="#263238"/><path d="m56.5 512c-2.214844 0-4-1.792969-4-4v-108c0-2.207031 1.785156-4 4-4s4 1.792969 4 4v108c0 2.207031-1.792969 4-4 4zm0 0" fill="#263238"/><path d="m24.5 512c-2.214844 0-4-1.792969-4-4v-108c0-2.207031 1.785156-4 4-4s4 1.792969 4 4v108c0 2.207031-1.792969 4-4 4zm0 0" fill="#263238"/><path d="m152.5 512c-2.207031 0-4-1.792969-4-4v-40c0-2.207031 1.792969-4 4-4s4 1.792969 4 4v40c0 2.207031-1.792969 4-4 4zm0 0" fill="#263238"/><path d="m128.5 512c-2.207031 0-4-1.792969-4-4v-40c0-2.207031 1.792969-4 4-4s4 1.792969 4 4v40c0 2.207031-1.792969 4-4 4zm0 0" fill="#263238"/><path d="m480.5 512c-2.207031 0-4-1.792969-4-4v-108c0-2.207031 1.792969-4 4-4s4 1.792969 4 4v108c0 2.207031-1.792969 4-4 4zm0 0" fill="#263238"/><path d="m448.5 512c-2.207031 0-4-1.792969-4-4v-108c0-2.207031 1.792969-4 4-4s4 1.792969 4 4v108c0 2.207031-1.792969 4-4 4zm0 0" fill="#263238"/><path d="m180.5 452h-80c-4.414062 0-8-3.585938-8-8v-16c0-4.414062 3.585938-8 8-8h80c4.414062 0 8 3.585938 8 8v16c0 4.414062-3.585938 8-8 8zm0 0" fill="#ff5252"/><path d="m180.5 456h-80c-6.617188 0-12-5.382812-12-12v-16c0-6.617188 5.382812-12 12-12h80c6.617188 0 12 5.382812 12 12v16c0 6.617188-5.382812 12-12 12zm-80-32c-2.207031 0-4 1.792969-4 4v16c0 2.207031 1.792969 4 4 4h80c2.207031 0 4-1.792969 4-4v-16c0-2.207031-1.792969-4-4-4zm0 0" fill="#263238"/><path d="m376.5 512c-2.207031 0-4-1.792969-4-4v-40c0-2.207031 1.792969-4 4-4s4 1.792969 4 4v40c0 2.207031-1.792969 4-4 4zm0 0" fill="#263238"/><path d="m352.5 512c-2.207031 0-4-1.792969-4-4v-40c0-2.207031 1.792969-4 4-4s4 1.792969 4 4v40c0 2.207031-1.792969 4-4 4zm0 0" fill="#263238"/><path d="m404.5 452h-80c-4.414062 0-8-3.585938-8-8v-16c0-4.414062 3.585938-8 8-8h80c4.414062 0 8 3.585938 8 8v16c0 4.414062-3.585938 8-8 8zm0 0" fill="#ff5252"/><path d="m404.5 456h-80c-6.617188 0-12-5.382812-12-12v-16c0-6.617188 5.382812-12 12-12h80c6.617188 0 12 5.382812 12 12v16c0 6.617188-5.382812 12-12 12zm-80-32c-2.207031 0-4 1.792969-4 4v16c0 2.207031 1.792969 4 4 4h80c2.207031 0 4-1.792969 4-4v-16c0-2.207031-1.792969-4-4-4zm0 0" fill="#263238"/><path d="m196.5 158.335938h-112l56-64zm0 0" fill="#40c4ff"/><path d="m196.5 162.335938h-112c-1.566406 0-2.992188-.921876-3.640625-2.34375-.65625-1.433594-.398437-3.105469.632813-4.289063l56-64c1.519531-1.742187 4.496093-1.742187 6.023437 0l56 64c1.03125 1.175781 1.28125 2.855469.632813 4.289063-.65625 1.421874-2.082032 2.34375-3.648438 2.34375zm-103.183594-8h94.367188l-47.183594-53.929688zm0 0" fill="#263238"/><path d="m140.5 98.335938c-2.207031 0-4-1.792969-4-4v-61.335938c0-2.207031 1.792969-4 4-4s4 1.792969 4 4v61.335938c0 2.207031-1.792969 4-4 4zm0 0" fill="#37474f"/><path d="m140.5 178.335938c-11.023438 0-20-8.976563-20-20 0-2.207032 1.792969-4 4-4h32c2.207031 0 4 1.792968 4 4 0 11.023437-8.976562 20-20 20zm-11.320312-16c1.65625 4.65625 6.105468 8 11.320312 8s9.664062-3.34375 11.320312-8zm0 0" fill="#37474f"/><path d="m420.5 158.335938h-112l56-64zm0 0" fill="#40c4ff"/><path d="m420.5 162.335938h-112c-1.566406 0-2.992188-.921876-3.640625-2.34375-.65625-1.433594-.398437-3.105469.632813-4.289063l56-64c1.519531-1.742187 4.496093-1.742187 6.023437 0l56 64c1.03125 1.175781 1.28125 2.855469.632813 4.289063-.65625 1.421874-2.082032 2.34375-3.648438 2.34375zm-103.183594-8h94.367188l-47.183594-53.929688zm0 0" fill="#263238"/><path d="m364.5 98.335938c-2.207031 0-4-1.792969-4-4v-61.335938c0-2.207031 1.792969-4 4-4s4 1.792969 4 4v61.335938c0 2.207031-1.792969 4-4 4zm0 0" fill="#37474f"/><g fill="#263238"><path d="m364.5 178.335938c-11.023438 0-20-8.976563-20-20 0-2.207032 1.792969-4 4-4h32c2.207031 0 4 1.792968 4 4 0 11.023437-8.976562 20-20 20zm-11.320312-16c1.65625 4.65625 6.105468 8 11.320312 8s9.664062-3.34375 11.320312-8zm0 0"/><path d="m428.5 336h-128c-6.617188 0-12-5.382812-12-12v-80c0-6.617188 5.382812-12 12-12h128c6.617188 0 12 5.382812 12 12v80c0 6.617188-5.382812 12-12 12zm-128-96c-2.207031 0-4 1.792969-4 4v80c0 2.207031 1.792969 4 4 4h128c2.207031 0 4-1.792969 4-4v-80c0-2.207031-1.792969-4-4-4zm0 0"/><path d="m444.5 356h-160c-6.617188 0-12-5.382812-12-12v-4c0-6.617188 5.382812-12 12-12h160c6.617188 0 12 5.382812 12 12v4c0 6.617188-5.382812 12-12 12zm-160-20c-2.207031 0-4 1.792969-4 4v4c0 2.207031 1.792969 4 4 4h160c2.207031 0 4-1.792969 4-4v-4c0-2.207031-1.792969-4-4-4zm0 0"/><path d="m420.5 272c-1.023438 0-2.046875-.390625-2.832031-1.167969l-16-16c-1.558594-1.558593-1.558594-4.097656 0-5.65625 1.558593-1.558593 4.097656-1.558593 5.65625 0l16 16c1.558593 1.558594 1.558593 4.097657 0 5.65625-.785157.777344-1.808594 1.167969-2.824219 1.167969zm0 0"/><path d="m420.5 296c-1.023438 0-2.046875-.390625-2.832031-1.167969l-40-40c-1.558594-1.558593-1.558594-4.097656 0-5.65625 1.558593-1.558593 4.097656-1.558593 5.65625 0l40 40c1.558593 1.558594 1.558593 4.097657 0 5.65625-.785157.777344-1.808594 1.167969-2.824219 1.167969zm0 0"/><path d="m204.5 336h-128c-6.617188 0-12-5.382812-12-12v-80c0-6.617188 5.382812-12 12-12h128c6.617188 0 12 5.382812 12 12v80c0 6.617188-5.382812 12-12 12zm-128-96c-2.207031 0-4 1.792969-4 4v80c0 2.207031 1.792969 4 4 4h128c2.207031 0 4-1.792969 4-4v-80c0-2.207031-1.792969-4-4-4zm0 0"/><path d="m220.5 356h-160c-6.617188 0-12-5.382812-12-12v-4c0-6.617188 5.382812-12 12-12h160c6.617188 0 12 5.382812 12 12v4c0 6.617188-5.382812 12-12 12zm-160-20c-2.207031 0-4 1.792969-4 4v4c0 2.207031 1.792969 4 4 4h160c2.207031 0 4-1.792969 4-4v-4c0-2.207031-1.792969-4-4-4zm0 0"/><path d="m196.5 272c-1.023438 0-2.046875-.390625-2.832031-1.167969l-16-16c-1.558594-1.558593-1.558594-4.097656 0-5.65625 1.558593-1.558593 4.097656-1.558593 5.65625 0l16 16c1.558593 1.558594 1.558593 4.097657 0 5.65625-.785157.777344-1.808594 1.167969-2.824219 1.167969zm0 0"/><path d="m196.5 296c-1.023438 0-2.046875-.390625-2.832031-1.167969l-40-40c-1.558594-1.558593-1.558594-4.097656 0-5.65625 1.558593-1.558593 4.097656-1.558593 5.65625 0l40 40c1.558593 1.558594 1.558593 4.097657 0 5.65625-.785157.777344-1.808594 1.167969-2.824219 1.167969zm0 0"/><path d="m492.5 32h-480c-6.625 0-12-5.382812-12-12v-8c0-6.617188 5.382812-12 12-12h480c6.617188 0 12 5.382812 12 12v8c0 6.617188-5.382812 12-12 12zm-480-24c-2.207031 0-4 1.792969-4 4v8c0 2.207031 1.792969 4 4 4h480c2.207031 0 4-1.792969 4-4v-8c0-2.207031-1.792969-4-4-4zm0 0"/><path d="m440.5 94.335938c-2.207031 0-4-1.792969-4-4v-32c0-2.207032 1.792969-4 4-4s4 1.792968 4 4v32c0 2.207031-1.792969 4-4 4zm0 0"/><path d="m456.5 78.335938h-32c-2.207031 0-4-1.792969-4-4 0-2.207032 1.792969-4 4-4h32c2.207031 0 4 1.792968 4 4 0 2.207031-1.792969 4-4 4zm0 0"/><path d="m484.5 142.335938c-2.207031 0-4-1.792969-4-4v-32c0-2.207032 1.792969-4 4-4s4 1.792968 4 4v32c0 2.207031-1.792969 4-4 4zm0 0"/><path d="m500.5 126.335938h-32c-2.207031 0-4-1.792969-4-4 0-2.207032 1.792969-4 4-4h32c2.207031 0 4 1.792968 4 4 0 2.207031-1.792969 4-4 4zm0 0"/></g></svg>