<svg height="464pt" viewBox="0 -4 464 464" width="464pt" xmlns="http://www.w3.org/2000/svg"><path d="m400 312h-184v-192h184zm0 0" fill="#c99b50"/><path d="m224 312h-64v-192h64zm0 0" fill="#bd924b"/><path d="m176 0h160v128h-160zm0 0" fill="#c99b50"/><path d="m176 0h48v120h-48zm0 0" fill="#bd924b"/><path d="m176 0h160v40h-160zm0 0" fill="#daa857"/><path d="m176 0h48v40h-48zm0 0" fill="#cfa053"/><path d="m264 64h32v16h-32zm0 0" fill="#ba8630"/><path d="m336 232-24-8-24 8v-112h48zm0 0" fill="#aedee2"/><path d="m248 264h16v16h-16zm0 0" fill="#ba8630"/><path d="m280 264h16v16h-16zm0 0" fill="#ba8630"/><path d="m400 192h-176v-72h176zm0 0" fill="#daa857"/><path d="m288 120h48v72h-48zm0 0" fill="#b3e4e8"/><path d="m160 120h64v72h-64zm0 0" fill="#cfa053"/><path d="m464 344h-360v-40h344c8.835938 0 16 7.164062 16 16zm0 0" fill="#69b0bb"/><g fill="#cbcbcb"><path d="m184 424c0 13.253906-10.746094 24-24 24s-24-10.746094-24-24 10.746094-24 24-24 24 10.746094 24 24zm0 0"/><path d="m432 424c0 13.253906-10.746094 24-24 24s-24-10.746094-24-24 10.746094-24 24-24 24 10.746094 24 24zm0 0"/><path d="m168 416h-24v-56h48v32zm0 0"/></g><path d="m160 456c-17.671875 0-32-14.328125-32-32s14.328125-32 32-32 32 14.328125 32 32-14.328125 32-32 32zm0-48c-8.835938 0-16 7.164062-16 16s7.164062 16 16 16 16-7.164062 16-16-7.164062-16-16-16zm0 0" fill="#e06661"/><path d="m416 416h-24v-56h48v32zm0 0" fill="#cbcbcb"/><path d="m408 456c-17.671875 0-32-14.328125-32-32s14.328125-32 32-32 32 14.328125 32 32-14.328125 32-32 32zm0-48c-8.835938 0-16 7.164062-16 16s7.164062 16 16 16 16-7.164062 16-16-7.164062-16-16-16zm0 0" fill="#e06661"/><path d="m112 328v-256c0-17.671875-14.328125-32-32-32h-80v32h80v264c0 17.671875 14.328125 32 32 32h352v-40zm0 0" fill="#dbdbdb"/><path d="m0 40h64v32h-64zm0 0" fill="#e06661"/><path d="m112 320h352v16h-352zm0 0" fill="#64a8b2"/><path d="m144 368h48v16h-48zm0 0" fill="#b6b6b6"/><path d="m392 368h48v16h-48zm0 0" fill="#b6b6b6"/></svg>